<?xml version="1.0" encoding="UTF-8"?>
<!DOCTYPE svg PUBLIC "-//W3C//DTD SVG 1.1//EN"
    "http://www.w3.org/Graphics/SVG/1.1/DTD/svg11.dtd"><svg xmlns="http://www.w3.org/2000/svg" height="800.0000" stroke-opacity="1" viewBox="0 0 800 800" font-size="1" width="800.0000" xmlns:xlink="http://www.w3.org/1999/xlink" stroke="rgb(0,0,0)" version="1.1"><defs></defs><g stroke-linejoin="miter" stroke-opacity="1.0" fill-opacity="1.0" stroke="rgb(0,0,0)" stroke-width="2.7769392181904244" fill="rgb(255,0,0)" stroke-linecap="butt" stroke-miterlimit="10.0"><path d="M 490.3679,782.6087 l -0.0000,-34.7826 l -30.1226,-17.3913 l -30.1226,17.3913 l -0.0000,34.7826 l 30.1226,17.3913 Z"/></g><g stroke-linejoin="miter" stroke-opacity="1.0" fill-opacity="1.0" stroke="rgb(0,0,0)" stroke-width="2.7769392181904244" fill="rgb(255,255,255)" stroke-linecap="butt" stroke-miterlimit="10.0"><path d="M 430.1226,782.6087 l -0.0000,-34.7826 l -30.1226,-17.3913 l -30.1226,17.3913 l -0.0000,34.7826 l 30.1226,17.3913 Z"/></g><g stroke-linejoin="miter" stroke-opacity="1.0" fill-opacity="1.0" stroke="rgb(0,0,0)" stroke-width="2.7769392181904244" fill="rgb(0,0,0)" stroke-linecap="butt" stroke-miterlimit="10.0"><path d="M 369.8774,782.6087 l -0.0000,-34.7826 l -30.1226,-17.3913 l -30.1226,17.3913 l -0.0000,34.7826 l 30.1226,17.3913 Z"/></g><g stroke-linejoin="miter" stroke-opacity="1.0" fill-opacity="1.0" stroke="rgb(0,0,0)" stroke-width="2.7769392181904244" fill="rgb(255,255,255)" stroke-linecap="butt" stroke-miterlimit="10.0"><path d="M 520.4905,730.4348 l -0.0000,-34.7826 l -30.1226,-17.3913 l -30.1226,17.3913 l -0.0000,34.7826 l 30.1226,17.3913 Z"/></g><g stroke-linejoin="miter" stroke-opacity="1.0" fill-opacity="1.0" stroke="rgb(0,0,0)" stroke-width="2.7769392181904244" fill="rgb(0,0,0)" stroke-linecap="butt" stroke-miterlimit="10.0"><path d="M 460.2452,730.4348 l -0.0000,-34.7826 l -30.1226,-17.3913 l -30.1226,17.3913 l -0.0000,34.7826 l 30.1226,17.3913 Z"/></g><g stroke-linejoin="miter" stroke-opacity="1.0" fill-opacity="1.0" stroke="rgb(0,0,0)" stroke-width="2.7769392181904244" fill="rgb(255,0,0)" stroke-linecap="butt" stroke-miterlimit="10.0"><path d="M 400.0000,730.4348 l -0.0000,-34.7826 l -30.1226,-17.3913 l -30.1226,17.3913 l -0.0000,34.7826 l 30.1226,17.3913 Z"/></g><g stroke-linejoin="miter" stroke-opacity="1.0" fill-opacity="1.0" stroke="rgb(0,0,0)" stroke-width="2.7769392181904244" fill="rgb(255,255,255)" stroke-linecap="butt" stroke-miterlimit="10.0"><path d="M 339.7548,730.4348 l -0.0000,-34.7826 l -30.1226,-17.3913 l -30.1226,17.3913 l -0.0000,34.7826 l 30.1226,17.3913 Z"/></g><g stroke-linejoin="miter" stroke-opacity="1.0" fill-opacity="1.0" stroke="rgb(0,0,0)" stroke-width="2.7769392181904244" fill="rgb(0,0,0)" stroke-linecap="butt" stroke-miterlimit="10.0"><path d="M 550.6131,678.2609 l -0.0000,-34.7826 l -30.1226,-17.3913 l -30.1226,17.3913 l -0.0000,34.7826 l 30.1226,17.3913 Z"/></g><g stroke-linejoin="miter" stroke-opacity="1.0" fill-opacity="1.0" stroke="rgb(0,0,0)" stroke-width="2.7769392181904244" fill="rgb(255,0,0)" stroke-linecap="butt" stroke-miterlimit="10.0"><path d="M 490.3679,678.2609 l -0.0000,-34.7826 l -30.1226,-17.3913 l -30.1226,17.3913 l -0.0000,34.7826 l 30.1226,17.3913 Z"/></g><g stroke-linejoin="miter" stroke-opacity="1.0" fill-opacity="1.0" stroke="rgb(0,0,0)" stroke-width="2.7769392181904244" fill="rgb(255,255,255)" stroke-linecap="butt" stroke-miterlimit="10.0"><path d="M 430.1226,678.2609 l -0.0000,-34.7826 l -30.1226,-17.3913 l -30.1226,17.3913 l -0.0000,34.7826 l 30.1226,17.3913 Z"/></g><g stroke-linejoin="miter" stroke-opacity="1.0" fill-opacity="1.0" stroke="rgb(0,0,0)" stroke-width="2.7769392181904244" fill="rgb(0,0,0)" stroke-linecap="butt" stroke-miterlimit="10.0"><path d="M 369.8774,678.2609 l -0.0000,-34.7826 l -30.1226,-17.3913 l -30.1226,17.3913 l -0.0000,34.7826 l 30.1226,17.3913 Z"/></g><g stroke-linejoin="miter" stroke-opacity="1.0" fill-opacity="1.0" stroke="rgb(0,0,0)" stroke-width="2.7769392181904244" fill="rgb(255,0,0)" stroke-linecap="butt" stroke-miterlimit="10.0"><path d="M 309.6321,678.2609 l -0.0000,-34.7826 l -30.1226,-17.3913 l -30.1226,17.3913 l -0.0000,34.7826 l 30.1226,17.3913 Z"/></g><g stroke-linejoin="miter" stroke-opacity="1.0" fill-opacity="1.0" stroke="rgb(0,0,0)" stroke-width="2.7769392181904244" fill="rgb(255,0,0)" stroke-linecap="butt" stroke-miterlimit="10.0"><path d="M 580.7357,626.0870 l -0.0000,-34.7826 l -30.1226,-17.3913 l -30.1226,17.3913 l -0.0000,34.7826 l 30.1226,17.3913 Z"/></g><g stroke-linejoin="miter" stroke-opacity="1.0" fill-opacity="1.0" stroke="rgb(0,0,0)" stroke-width="2.7769392181904244" fill="rgb(255,255,255)" stroke-linecap="butt" stroke-miterlimit="10.0"><path d="M 520.4905,626.0870 l -0.0000,-34.7826 l -30.1226,-17.3913 l -30.1226,17.3913 l -0.0000,34.7826 l 30.1226,17.3913 Z"/></g><g stroke-linejoin="miter" stroke-opacity="1.0" fill-opacity="1.0" stroke="rgb(0,0,0)" stroke-width="2.7769392181904244" fill="rgb(0,0,0)" stroke-linecap="butt" stroke-miterlimit="10.0"><path d="M 460.2452,626.0870 l -0.0000,-34.7826 l -30.1226,-17.3913 l -30.1226,17.3913 l -0.0000,34.7826 l 30.1226,17.3913 Z"/></g><g stroke-linejoin="miter" stroke-opacity="1.0" fill-opacity="1.0" stroke="rgb(0,0,0)" stroke-width="2.7769392181904244" fill="rgb(255,0,0)" stroke-linecap="butt" stroke-miterlimit="10.0"><path d="M 400.0000,626.0870 l -0.0000,-34.7826 l -30.1226,-17.3913 l -30.1226,17.3913 l -0.0000,34.7826 l 30.1226,17.3913 Z"/></g><g stroke-linejoin="miter" stroke-opacity="1.0" fill-opacity="1.0" stroke="rgb(0,0,0)" stroke-width="2.7769392181904244" fill="rgb(255,255,255)" stroke-linecap="butt" stroke-miterlimit="10.0"><path d="M 339.7548,626.0870 l -0.0000,-34.7826 l -30.1226,-17.3913 l -30.1226,17.3913 l -0.0000,34.7826 l 30.1226,17.3913 Z"/></g><g stroke-linejoin="miter" stroke-opacity="1.0" fill-opacity="1.0" stroke="rgb(0,0,0)" stroke-width="2.7769392181904244" fill="rgb(0,0,0)" stroke-linecap="butt" stroke-miterlimit="10.0"><path d="M 279.5095,626.0870 l -0.0000,-34.7826 l -30.1226,-17.3913 l -30.1226,17.3913 l -0.0000,34.7826 l 30.1226,17.3913 Z"/></g><g stroke-linejoin="miter" stroke-opacity="1.0" fill-opacity="1.0" stroke="rgb(0,0,0)" stroke-width="2.7769392181904244" fill="rgb(255,255,255)" stroke-linecap="butt" stroke-miterlimit="10.0"><path d="M 610.8584,573.9130 l -0.0000,-34.7826 l -30.1226,-17.3913 l -30.1226,17.3913 l -0.0000,34.7826 l 30.1226,17.3913 Z"/></g><g stroke-linejoin="miter" stroke-opacity="1.0" fill-opacity="1.0" stroke="rgb(0,0,0)" stroke-width="2.7769392181904244" fill="rgb(0,0,0)" stroke-linecap="butt" stroke-miterlimit="10.0"><path d="M 550.6131,573.9130 l -0.0000,-34.7826 l -30.1226,-17.3913 l -30.1226,17.3913 l -0.0000,34.7826 l 30.1226,17.3913 Z"/></g><g stroke-linejoin="miter" stroke-opacity="1.0" fill-opacity="1.0" stroke="rgb(0,0,0)" stroke-width="2.7769392181904244" fill="rgb(255,0,0)" stroke-linecap="butt" stroke-miterlimit="10.0"><path d="M 490.3679,573.9130 l -0.0000,-34.7826 l -30.1226,-17.3913 l -30.1226,17.3913 l -0.0000,34.7826 l 30.1226,17.3913 Z"/></g><g stroke-linejoin="miter" stroke-opacity="1.0" fill-opacity="1.0" stroke="rgb(0,0,0)" stroke-width="2.7769392181904244" fill="rgb(255,255,255)" stroke-linecap="butt" stroke-miterlimit="10.0"><path d="M 430.1226,573.9130 l -0.0000,-34.7826 l -30.1226,-17.3913 l -30.1226,17.3913 l -0.0000,34.7826 l 30.1226,17.3913 Z"/></g><g stroke-linejoin="miter" stroke-opacity="1.0" fill-opacity="1.0" stroke="rgb(0,0,0)" stroke-width="2.7769392181904244" fill="rgb(0,0,0)" stroke-linecap="butt" stroke-miterlimit="10.0"><path d="M 369.8774,573.9130 l -0.0000,-34.7826 l -30.1226,-17.3913 l -30.1226,17.3913 l -0.0000,34.7826 l 30.1226,17.3913 Z"/></g><g stroke-linejoin="miter" stroke-opacity="1.0" fill-opacity="1.0" stroke="rgb(0,0,0)" stroke-width="2.7769392181904244" fill="rgb(255,0,0)" stroke-linecap="butt" stroke-miterlimit="10.0"><path d="M 309.6321,573.9130 l -0.0000,-34.7826 l -30.1226,-17.3913 l -30.1226,17.3913 l -0.0000,34.7826 l 30.1226,17.3913 Z"/></g><g stroke-linejoin="miter" stroke-opacity="1.0" fill-opacity="1.0" stroke="rgb(0,0,0)" stroke-width="2.7769392181904244" fill="rgb(255,255,255)" stroke-linecap="butt" stroke-miterlimit="10.0"><path d="M 249.3869,573.9130 l -0.0000,-34.7826 l -30.1226,-17.3913 l -30.1226,17.3913 l -0.0000,34.7826 l 30.1226,17.3913 Z"/></g><g stroke-linejoin="miter" stroke-opacity="1.0" fill-opacity="1.0" stroke="rgb(0,0,0)" stroke-width="2.7769392181904244" fill="rgb(0,0,0)" stroke-linecap="butt" stroke-miterlimit="10.0"><path d="M 640.9810,521.7391 l -0.0000,-34.7826 l -30.1226,-17.3913 l -30.1226,17.3913 l -0.0000,34.7826 l 30.1226,17.3913 Z"/></g><g stroke-linejoin="miter" stroke-opacity="1.0" fill-opacity="1.0" stroke="rgb(0,0,0)" stroke-width="2.7769392181904244" fill="rgb(255,0,0)" stroke-linecap="butt" stroke-miterlimit="10.0"><path d="M 580.7357,521.7391 l -0.0000,-34.7826 l -30.1226,-17.3913 l -30.1226,17.3913 l -0.0000,34.7826 l 30.1226,17.3913 Z"/></g><g stroke-linejoin="miter" stroke-opacity="1.0" fill-opacity="1.0" stroke="rgb(0,0,0)" stroke-width="2.7769392181904244" fill="rgb(255,255,255)" stroke-linecap="butt" stroke-miterlimit="10.0"><path d="M 520.4905,521.7391 l -0.0000,-34.7826 l -30.1226,-17.3913 l -30.1226,17.3913 l -0.0000,34.7826 l 30.1226,17.3913 Z"/></g><g stroke-linejoin="miter" stroke-opacity="1.0" fill-opacity="1.0" stroke="rgb(0,0,0)" stroke-width="2.7769392181904244" fill="rgb(0,0,0)" stroke-linecap="butt" stroke-miterlimit="10.0"><path d="M 460.2452,521.7391 l -0.0000,-34.7826 l -30.1226,-17.3913 l -30.1226,17.3913 l -0.0000,34.7826 l 30.1226,17.3913 Z"/></g><g stroke-linejoin="miter" stroke-opacity="1.0" fill-opacity="1.0" stroke="rgb(0,0,0)" stroke-width="2.7769392181904244" fill="rgb(255,0,0)" stroke-linecap="butt" stroke-miterlimit="10.0"><path d="M 400.0000,521.7391 l -0.0000,-34.7826 l -30.1226,-17.3913 l -30.1226,17.3913 l -0.0000,34.7826 l 30.1226,17.3913 Z"/></g><g stroke-linejoin="miter" stroke-opacity="1.0" fill-opacity="1.0" stroke="rgb(0,0,0)" stroke-width="2.7769392181904244" fill="rgb(255,255,255)" stroke-linecap="butt" stroke-miterlimit="10.0"><path d="M 339.7548,521.7391 l -0.0000,-34.7826 l -30.1226,-17.3913 l -30.1226,17.3913 l -0.0000,34.7826 l 30.1226,17.3913 Z"/></g><g stroke-linejoin="miter" stroke-opacity="1.0" fill-opacity="1.0" stroke="rgb(0,0,0)" stroke-width="2.7769392181904244" fill="rgb(0,0,0)" stroke-linecap="butt" stroke-miterlimit="10.0"><path d="M 279.5095,521.7391 l -0.0000,-34.7826 l -30.1226,-17.3913 l -30.1226,17.3913 l -0.0000,34.7826 l 30.1226,17.3913 Z"/></g><g stroke-linejoin="miter" stroke-opacity="1.0" fill-opacity="1.0" stroke="rgb(0,0,0)" stroke-width="2.7769392181904244" fill="rgb(255,0,0)" stroke-linecap="butt" stroke-miterlimit="10.0"><path d="M 219.2643,521.7391 l -0.0000,-34.7826 l -30.1226,-17.3913 l -30.1226,17.3913 l -0.0000,34.7826 l 30.1226,17.3913 Z"/></g><g stroke-linejoin="miter" stroke-opacity="1.0" fill-opacity="1.0" stroke="rgb(0,0,0)" stroke-width="2.7769392181904244" fill="rgb(255,0,0)" stroke-linecap="butt" stroke-miterlimit="10.0"><path d="M 671.1036,469.5652 l -0.0000,-34.7826 l -30.1226,-17.3913 l -30.1226,17.3913 l -0.0000,34.7826 l 30.1226,17.3913 Z"/></g><g stroke-linejoin="miter" stroke-opacity="1.0" fill-opacity="1.0" stroke="rgb(0,0,0)" stroke-width="2.7769392181904244" fill="rgb(255,255,255)" stroke-linecap="butt" stroke-miterlimit="10.0"><path d="M 610.8584,469.5652 l -0.0000,-34.7826 l -30.1226,-17.3913 l -30.1226,17.3913 l -0.0000,34.7826 l 30.1226,17.3913 Z"/></g><g stroke-linejoin="miter" stroke-opacity="1.0" fill-opacity="1.0" stroke="rgb(0,0,0)" stroke-width="2.7769392181904244" fill="rgb(0,0,0)" stroke-linecap="butt" stroke-miterlimit="10.0"><path d="M 550.6131,469.5652 l -0.0000,-34.7826 l -30.1226,-17.3913 l -30.1226,17.3913 l -0.0000,34.7826 l 30.1226,17.3913 Z"/></g><g stroke-linejoin="miter" stroke-opacity="1.0" fill-opacity="1.0" stroke="rgb(0,0,0)" stroke-width="2.7769392181904244" fill="rgb(255,0,0)" stroke-linecap="butt" stroke-miterlimit="10.0"><path d="M 490.3679,469.5652 l -0.0000,-34.7826 l -30.1226,-17.3913 l -30.1226,17.3913 l -0.0000,34.7826 l 30.1226,17.3913 Z"/></g><g stroke-linejoin="miter" stroke-opacity="1.0" fill-opacity="1.0" stroke="rgb(0,0,0)" stroke-width="2.7769392181904244" fill="rgb(255,255,255)" stroke-linecap="butt" stroke-miterlimit="10.0"><path d="M 430.1226,469.5652 l -0.0000,-34.7826 l -30.1226,-17.3913 l -30.1226,17.3913 l -0.0000,34.7826 l 30.1226,17.3913 Z"/></g><g stroke-linejoin="miter" stroke-opacity="1.0" fill-opacity="1.0" stroke="rgb(0,0,0)" stroke-width="2.7769392181904244" fill="rgb(0,0,0)" stroke-linecap="butt" stroke-miterlimit="10.0"><path d="M 369.8774,469.5652 l -0.0000,-34.7826 l -30.1226,-17.3913 l -30.1226,17.3913 l -0.0000,34.7826 l 30.1226,17.3913 Z"/></g><g stroke-linejoin="miter" stroke-opacity="1.0" fill-opacity="1.0" stroke="rgb(0,0,0)" stroke-width="2.7769392181904244" fill="rgb(255,0,0)" stroke-linecap="butt" stroke-miterlimit="10.0"><path d="M 309.6321,469.5652 l -0.0000,-34.7826 l -30.1226,-17.3913 l -30.1226,17.3913 l -0.0000,34.7826 l 30.1226,17.3913 Z"/></g><g stroke-linejoin="miter" stroke-opacity="1.0" fill-opacity="1.0" stroke="rgb(0,0,0)" stroke-width="2.7769392181904244" fill="rgb(255,255,255)" stroke-linecap="butt" stroke-miterlimit="10.0"><path d="M 249.3869,469.5652 l -0.0000,-34.7826 l -30.1226,-17.3913 l -30.1226,17.3913 l -0.0000,34.7826 l 30.1226,17.3913 Z"/></g><g stroke-linejoin="miter" stroke-opacity="1.0" fill-opacity="1.0" stroke="rgb(0,0,0)" stroke-width="2.7769392181904244" fill="rgb(0,0,0)" stroke-linecap="butt" stroke-miterlimit="10.0"><path d="M 189.1416,469.5652 l -0.0000,-34.7826 l -30.1226,-17.3913 l -30.1226,17.3913 l -0.0000,34.7826 l 30.1226,17.3913 Z"/></g><g stroke-linejoin="miter" stroke-opacity="1.0" fill-opacity="1.0" stroke="rgb(0,0,0)" stroke-width="2.7769392181904244" fill="rgb(255,255,255)" stroke-linecap="butt" stroke-miterlimit="10.0"><path d="M 701.2262,417.3913 l -0.0000,-34.7826 l -30.1226,-17.3913 l -30.1226,17.3913 l -0.0000,34.7826 l 30.1226,17.3913 Z"/></g><g stroke-linejoin="miter" stroke-opacity="1.0" fill-opacity="1.0" stroke="rgb(0,0,0)" stroke-width="2.7769392181904244" fill="rgb(0,0,0)" stroke-linecap="butt" stroke-miterlimit="10.0"><path d="M 640.9810,417.3913 l -0.0000,-34.7826 l -30.1226,-17.3913 l -30.1226,17.3913 l -0.0000,34.7826 l 30.1226,17.3913 Z"/></g><g stroke-linejoin="miter" stroke-opacity="1.0" fill-opacity="1.0" stroke="rgb(0,0,0)" stroke-width="2.7769392181904244" fill="rgb(255,0,0)" stroke-linecap="butt" stroke-miterlimit="10.0"><path d="M 580.7357,417.3913 l -0.0000,-34.7826 l -30.1226,-17.3913 l -30.1226,17.3913 l -0.0000,34.7826 l 30.1226,17.3913 Z"/></g><g stroke-linejoin="miter" stroke-opacity="1.0" fill-opacity="1.0" stroke="rgb(0,0,0)" stroke-width="2.7769392181904244" fill="rgb(255,255,255)" stroke-linecap="butt" stroke-miterlimit="10.0"><path d="M 520.4905,417.3913 l -0.0000,-34.7826 l -30.1226,-17.3913 l -30.1226,17.3913 l -0.0000,34.7826 l 30.1226,17.3913 Z"/></g><g stroke-linejoin="miter" stroke-opacity="1.0" fill-opacity="1.0" stroke="rgb(0,0,0)" stroke-width="2.7769392181904244" fill="rgb(0,0,0)" stroke-linecap="butt" stroke-miterlimit="10.0"><path d="M 460.2452,417.3913 l -0.0000,-34.7826 l -30.1226,-17.3913 l -30.1226,17.3913 l -0.0000,34.7826 l 30.1226,17.3913 Z"/></g><g stroke-linejoin="miter" stroke-opacity="1.0" fill-opacity="1.0" stroke="rgb(0,0,0)" stroke-width="2.7769392181904244" fill="rgb(255,0,0)" stroke-linecap="butt" stroke-miterlimit="10.0"><path d="M 400.0000,417.3913 l -0.0000,-34.7826 l -30.1226,-17.3913 l -30.1226,17.3913 l -0.0000,34.7826 l 30.1226,17.3913 Z"/></g><g stroke-linejoin="miter" stroke-opacity="1.0" fill-opacity="1.0" stroke="rgb(0,0,0)" stroke-width="2.7769392181904244" fill="rgb(255,255,255)" stroke-linecap="butt" stroke-miterlimit="10.0"><path d="M 339.7548,417.3913 l -0.0000,-34.7826 l -30.1226,-17.3913 l -30.1226,17.3913 l -0.0000,34.7826 l 30.1226,17.3913 Z"/></g><g stroke-linejoin="miter" stroke-opacity="1.0" fill-opacity="1.0" stroke="rgb(0,0,0)" stroke-width="2.7769392181904244" fill="rgb(0,0,0)" stroke-linecap="butt" stroke-miterlimit="10.0"><path d="M 279.5095,417.3913 l -0.0000,-34.7826 l -30.1226,-17.3913 l -30.1226,17.3913 l -0.0000,34.7826 l 30.1226,17.3913 Z"/></g><g stroke-linejoin="miter" stroke-opacity="1.0" fill-opacity="1.0" stroke="rgb(0,0,0)" stroke-width="2.7769392181904244" fill="rgb(255,0,0)" stroke-linecap="butt" stroke-miterlimit="10.0"><path d="M 219.2643,417.3913 l -0.0000,-34.7826 l -30.1226,-17.3913 l -30.1226,17.3913 l -0.0000,34.7826 l 30.1226,17.3913 Z"/></g><g stroke-linejoin="miter" stroke-opacity="1.0" fill-opacity="1.0" stroke="rgb(0,0,0)" stroke-width="2.7769392181904244" fill="rgb(255,255,255)" stroke-linecap="butt" stroke-miterlimit="10.0"><path d="M 159.0190,417.3913 l -0.0000,-34.7826 l -30.1226,-17.3913 l -30.1226,17.3913 l -0.0000,34.7826 l 30.1226,17.3913 Z"/></g><g stroke-linejoin="miter" stroke-opacity="1.0" fill-opacity="1.0" stroke="rgb(0,0,0)" stroke-width="2.7769392181904244" fill="rgb(255,0,0)" stroke-linecap="butt" stroke-miterlimit="10.0"><path d="M 671.1036,365.2174 l -0.0000,-34.7826 l -30.1226,-17.3913 l -30.1226,17.3913 l -0.0000,34.7826 l 30.1226,17.3913 Z"/></g><g stroke-linejoin="miter" stroke-opacity="1.0" fill-opacity="1.0" stroke="rgb(0,0,0)" stroke-width="2.7769392181904244" fill="rgb(255,255,255)" stroke-linecap="butt" stroke-miterlimit="10.0"><path d="M 610.8584,365.2174 l -0.0000,-34.7826 l -30.1226,-17.3913 l -30.1226,17.3913 l -0.0000,34.7826 l 30.1226,17.3913 Z"/></g><g stroke-linejoin="miter" stroke-opacity="1.0" fill-opacity="1.0" stroke="rgb(0,0,0)" stroke-width="2.7769392181904244" fill="rgb(0,0,0)" stroke-linecap="butt" stroke-miterlimit="10.0"><path d="M 550.6131,365.2174 l -0.0000,-34.7826 l -30.1226,-17.3913 l -30.1226,17.3913 l -0.0000,34.7826 l 30.1226,17.3913 Z"/></g><g stroke-linejoin="miter" stroke-opacity="1.0" fill-opacity="1.0" stroke="rgb(0,0,0)" stroke-width="2.7769392181904244" fill="rgb(255,0,0)" stroke-linecap="butt" stroke-miterlimit="10.0"><path d="M 490.3679,365.2174 l -0.0000,-34.7826 l -30.1226,-17.3913 l -30.1226,17.3913 l -0.0000,34.7826 l 30.1226,17.3913 Z"/></g><g stroke-linejoin="miter" stroke-opacity="1.0" fill-opacity="1.0" stroke="rgb(0,0,0)" stroke-width="2.7769392181904244" fill="rgb(255,255,255)" stroke-linecap="butt" stroke-miterlimit="10.0"><path d="M 430.1226,365.2174 l -0.0000,-34.7826 l -30.1226,-17.3913 l -30.1226,17.3913 l -0.0000,34.7826 l 30.1226,17.3913 Z"/></g><g stroke-linejoin="miter" stroke-opacity="1.0" fill-opacity="1.0" stroke="rgb(0,0,0)" stroke-width="2.7769392181904244" fill="rgb(0,0,0)" stroke-linecap="butt" stroke-miterlimit="10.0"><path d="M 369.8774,365.2174 l -0.0000,-34.7826 l -30.1226,-17.3913 l -30.1226,17.3913 l -0.0000,34.7826 l 30.1226,17.3913 Z"/></g><g stroke-linejoin="miter" stroke-opacity="1.0" fill-opacity="1.0" stroke="rgb(0,0,0)" stroke-width="2.7769392181904244" fill="rgb(255,0,0)" stroke-linecap="butt" stroke-miterlimit="10.0"><path d="M 309.6321,365.2174 l -0.0000,-34.7826 l -30.1226,-17.3913 l -30.1226,17.3913 l -0.0000,34.7826 l 30.1226,17.3913 Z"/></g><g stroke-linejoin="miter" stroke-opacity="1.0" fill-opacity="1.0" stroke="rgb(0,0,0)" stroke-width="2.7769392181904244" fill="rgb(255,255,255)" stroke-linecap="butt" stroke-miterlimit="10.0"><path d="M 249.3869,365.2174 l -0.0000,-34.7826 l -30.1226,-17.3913 l -30.1226,17.3913 l -0.0000,34.7826 l 30.1226,17.3913 Z"/></g><g stroke-linejoin="miter" stroke-opacity="1.0" fill-opacity="1.0" stroke="rgb(0,0,0)" stroke-width="2.7769392181904244" fill="rgb(0,0,0)" stroke-linecap="butt" stroke-miterlimit="10.0"><path d="M 189.1416,365.2174 l -0.0000,-34.7826 l -30.1226,-17.3913 l -30.1226,17.3913 l -0.0000,34.7826 l 30.1226,17.3913 Z"/></g><g stroke-linejoin="miter" stroke-opacity="1.0" fill-opacity="1.0" stroke="rgb(0,0,0)" stroke-width="2.7769392181904244" fill="rgb(0,0,0)" stroke-linecap="butt" stroke-miterlimit="10.0"><path d="M 640.9810,313.0435 l -0.0000,-34.7826 l -30.1226,-17.3913 l -30.1226,17.3913 l -0.0000,34.7826 l 30.1226,17.3913 Z"/></g><g stroke-linejoin="miter" stroke-opacity="1.0" fill-opacity="1.0" stroke="rgb(0,0,0)" stroke-width="2.7769392181904244" fill="rgb(255,0,0)" stroke-linecap="butt" stroke-miterlimit="10.0"><path d="M 580.7357,313.0435 l -0.0000,-34.7826 l -30.1226,-17.3913 l -30.1226,17.3913 l -0.0000,34.7826 l 30.1226,17.3913 Z"/></g><g stroke-linejoin="miter" stroke-opacity="1.0" fill-opacity="1.0" stroke="rgb(0,0,0)" stroke-width="2.7769392181904244" fill="rgb(255,255,255)" stroke-linecap="butt" stroke-miterlimit="10.0"><path d="M 520.4905,313.0435 l -0.0000,-34.7826 l -30.1226,-17.3913 l -30.1226,17.3913 l -0.0000,34.7826 l 30.1226,17.3913 Z"/></g><g stroke-linejoin="miter" stroke-opacity="1.0" fill-opacity="1.0" stroke="rgb(0,0,0)" stroke-width="2.7769392181904244" fill="rgb(0,0,0)" stroke-linecap="butt" stroke-miterlimit="10.0"><path d="M 460.2452,313.0435 l -0.0000,-34.7826 l -30.1226,-17.3913 l -30.1226,17.3913 l -0.0000,34.7826 l 30.1226,17.3913 Z"/></g><g stroke-linejoin="miter" stroke-opacity="1.0" fill-opacity="1.0" stroke="rgb(0,0,0)" stroke-width="2.7769392181904244" fill="rgb(255,0,0)" stroke-linecap="butt" stroke-miterlimit="10.0"><path d="M 400.0000,313.0435 l -0.0000,-34.7826 l -30.1226,-17.3913 l -30.1226,17.3913 l -0.0000,34.7826 l 30.1226,17.3913 Z"/></g><g stroke-linejoin="miter" stroke-opacity="1.0" fill-opacity="1.0" stroke="rgb(0,0,0)" stroke-width="2.7769392181904244" fill="rgb(255,255,255)" stroke-linecap="butt" stroke-miterlimit="10.0"><path d="M 339.7548,313.0435 l -0.0000,-34.7826 l -30.1226,-17.3913 l -30.1226,17.3913 l -0.0000,34.7826 l 30.1226,17.3913 Z"/></g><g stroke-linejoin="miter" stroke-opacity="1.0" fill-opacity="1.0" stroke="rgb(0,0,0)" stroke-width="2.7769392181904244" fill="rgb(0,0,0)" stroke-linecap="butt" stroke-miterlimit="10.0"><path d="M 279.5095,313.0435 l -0.0000,-34.7826 l -30.1226,-17.3913 l -30.1226,17.3913 l -0.0000,34.7826 l 30.1226,17.3913 Z"/></g><g stroke-linejoin="miter" stroke-opacity="1.0" fill-opacity="1.0" stroke="rgb(0,0,0)" stroke-width="2.7769392181904244" fill="rgb(255,0,0)" stroke-linecap="butt" stroke-miterlimit="10.0"><path d="M 219.2643,313.0435 l -0.0000,-34.7826 l -30.1226,-17.3913 l -30.1226,17.3913 l -0.0000,34.7826 l 30.1226,17.3913 Z"/></g><g stroke-linejoin="miter" stroke-opacity="1.0" fill-opacity="1.0" stroke="rgb(0,0,0)" stroke-width="2.7769392181904244" fill="rgb(255,255,255)" stroke-linecap="butt" stroke-miterlimit="10.0"><path d="M 610.8584,260.8696 l -0.0000,-34.7826 l -30.1226,-17.3913 l -30.1226,17.3913 l -0.0000,34.7826 l 30.1226,17.3913 Z"/></g><g stroke-linejoin="miter" stroke-opacity="1.0" fill-opacity="1.0" stroke="rgb(0,0,0)" stroke-width="2.7769392181904244" fill="rgb(0,0,0)" stroke-linecap="butt" stroke-miterlimit="10.0"><path d="M 550.6131,260.8696 l -0.0000,-34.7826 l -30.1226,-17.3913 l -30.1226,17.3913 l -0.0000,34.7826 l 30.1226,17.3913 Z"/></g><g stroke-linejoin="miter" stroke-opacity="1.0" fill-opacity="1.0" stroke="rgb(0,0,0)" stroke-width="2.7769392181904244" fill="rgb(255,0,0)" stroke-linecap="butt" stroke-miterlimit="10.0"><path d="M 490.3679,260.8696 l -0.0000,-34.7826 l -30.1226,-17.3913 l -30.1226,17.3913 l -0.0000,34.7826 l 30.1226,17.3913 Z"/></g><g stroke-linejoin="miter" stroke-opacity="1.0" fill-opacity="1.0" stroke="rgb(0,0,0)" stroke-width="2.7769392181904244" fill="rgb(255,255,255)" stroke-linecap="butt" stroke-miterlimit="10.0"><path d="M 430.1226,260.8696 l -0.0000,-34.7826 l -30.1226,-17.3913 l -30.1226,17.3913 l -0.0000,34.7826 l 30.1226,17.3913 Z"/></g><g stroke-linejoin="miter" stroke-opacity="1.0" fill-opacity="1.0" stroke="rgb(0,0,0)" stroke-width="2.7769392181904244" fill="rgb(0,0,0)" stroke-linecap="butt" stroke-miterlimit="10.0"><path d="M 369.8774,260.8696 l -0.0000,-34.7826 l -30.1226,-17.3913 l -30.1226,17.3913 l -0.0000,34.7826 l 30.1226,17.3913 Z"/></g><g stroke-linejoin="miter" stroke-opacity="1.0" fill-opacity="1.0" stroke="rgb(0,0,0)" stroke-width="2.7769392181904244" fill="rgb(255,0,0)" stroke-linecap="butt" stroke-miterlimit="10.0"><path d="M 309.6321,260.8696 l -0.0000,-34.7826 l -30.1226,-17.3913 l -30.1226,17.3913 l -0.0000,34.7826 l 30.1226,17.3913 Z"/></g><g stroke-linejoin="miter" stroke-opacity="1.0" fill-opacity="1.0" stroke="rgb(0,0,0)" stroke-width="2.7769392181904244" fill="rgb(255,255,255)" stroke-linecap="butt" stroke-miterlimit="10.0"><path d="M 249.3869,260.8696 l -0.0000,-34.7826 l -30.1226,-17.3913 l -30.1226,17.3913 l -0.0000,34.7826 l 30.1226,17.3913 Z"/></g><g stroke-linejoin="miter" stroke-opacity="1.0" fill-opacity="1.0" stroke="rgb(0,0,0)" stroke-width="2.7769392181904244" fill="rgb(255,0,0)" stroke-linecap="butt" stroke-miterlimit="10.0"><path d="M 580.7357,208.6957 l -0.0000,-34.7826 l -30.1226,-17.3913 l -30.1226,17.3913 l -0.0000,34.7826 l 30.1226,17.3913 Z"/></g><g stroke-linejoin="miter" stroke-opacity="1.0" fill-opacity="1.0" stroke="rgb(0,0,0)" stroke-width="2.7769392181904244" fill="rgb(255,255,255)" stroke-linecap="butt" stroke-miterlimit="10.0"><path d="M 520.4905,208.6957 l -0.0000,-34.7826 l -30.1226,-17.3913 l -30.1226,17.3913 l -0.0000,34.7826 l 30.1226,17.3913 Z"/></g><g stroke-linejoin="miter" stroke-opacity="1.0" fill-opacity="1.0" stroke="rgb(0,0,0)" stroke-width="2.7769392181904244" fill="rgb(0,0,0)" stroke-linecap="butt" stroke-miterlimit="10.0"><path d="M 460.2452,208.6957 l -0.0000,-34.7826 l -30.1226,-17.3913 l -30.1226,17.3913 l -0.0000,34.7826 l 30.1226,17.3913 Z"/></g><g stroke-linejoin="miter" stroke-opacity="1.0" fill-opacity="1.0" stroke="rgb(0,0,0)" stroke-width="2.7769392181904244" fill="rgb(255,0,0)" stroke-linecap="butt" stroke-miterlimit="10.0"><path d="M 400.0000,208.6957 l -0.0000,-34.7826 l -30.1226,-17.3913 l -30.1226,17.3913 l -0.0000,34.7826 l 30.1226,17.3913 Z"/></g><g stroke-linejoin="miter" stroke-opacity="1.0" fill-opacity="1.0" stroke="rgb(0,0,0)" stroke-width="2.7769392181904244" fill="rgb(255,255,255)" stroke-linecap="butt" stroke-miterlimit="10.0"><path d="M 339.7548,208.6957 l -0.0000,-34.7826 l -30.1226,-17.3913 l -30.1226,17.3913 l -0.0000,34.7826 l 30.1226,17.3913 Z"/></g><g stroke-linejoin="miter" stroke-opacity="1.0" fill-opacity="1.0" stroke="rgb(0,0,0)" stroke-width="2.7769392181904244" fill="rgb(0,0,0)" stroke-linecap="butt" stroke-miterlimit="10.0"><path d="M 279.5095,208.6957 l -0.0000,-34.7826 l -30.1226,-17.3913 l -30.1226,17.3913 l -0.0000,34.7826 l 30.1226,17.3913 Z"/></g><g stroke-linejoin="miter" stroke-opacity="1.0" fill-opacity="1.0" stroke="rgb(0,0,0)" stroke-width="2.7769392181904244" fill="rgb(0,0,0)" stroke-linecap="butt" stroke-miterlimit="10.0"><path d="M 550.6131,156.5217 l -0.0000,-34.7826 l -30.1226,-17.3913 l -30.1226,17.3913 l -0.0000,34.7826 l 30.1226,17.3913 Z"/></g><g stroke-linejoin="miter" stroke-opacity="1.0" fill-opacity="1.0" stroke="rgb(0,0,0)" stroke-width="2.7769392181904244" fill="rgb(255,0,0)" stroke-linecap="butt" stroke-miterlimit="10.0"><path d="M 490.3679,156.5217 l -0.0000,-34.7826 l -30.1226,-17.3913 l -30.1226,17.3913 l -0.0000,34.7826 l 30.1226,17.3913 Z"/></g><g stroke-linejoin="miter" stroke-opacity="1.0" fill-opacity="1.0" stroke="rgb(0,0,0)" stroke-width="2.7769392181904244" fill="rgb(255,255,255)" stroke-linecap="butt" stroke-miterlimit="10.0"><path d="M 430.1226,156.5217 l -0.0000,-34.7826 l -30.1226,-17.3913 l -30.1226,17.3913 l -0.0000,34.7826 l 30.1226,17.3913 Z"/></g><g stroke-linejoin="miter" stroke-opacity="1.0" fill-opacity="1.0" stroke="rgb(0,0,0)" stroke-width="2.7769392181904244" fill="rgb(0,0,0)" stroke-linecap="butt" stroke-miterlimit="10.0"><path d="M 369.8774,156.5217 l -0.0000,-34.7826 l -30.1226,-17.3913 l -30.1226,17.3913 l -0.0000,34.7826 l 30.1226,17.3913 Z"/></g><g stroke-linejoin="miter" stroke-opacity="1.0" fill-opacity="1.0" stroke="rgb(0,0,0)" stroke-width="2.7769392181904244" fill="rgb(255,0,0)" stroke-linecap="butt" stroke-miterlimit="10.0"><path d="M 309.6321,156.5217 l -0.0000,-34.7826 l -30.1226,-17.3913 l -30.1226,17.3913 l -0.0000,34.7826 l 30.1226,17.3913 Z"/></g><g stroke-linejoin="miter" stroke-opacity="1.0" fill-opacity="1.0" stroke="rgb(0,0,0)" stroke-width="2.7769392181904244" fill="rgb(255,255,255)" stroke-linecap="butt" stroke-miterlimit="10.0"><path d="M 520.4905,104.3478 l -0.0000,-34.7826 l -30.1226,-17.3913 l -30.1226,17.3913 l -0.0000,34.7826 l 30.1226,17.3913 Z"/></g><g stroke-linejoin="miter" stroke-opacity="1.0" fill-opacity="1.0" stroke="rgb(0,0,0)" stroke-width="2.7769392181904244" fill="rgb(0,0,0)" stroke-linecap="butt" stroke-miterlimit="10.0"><path d="M 460.2452,104.3478 l -0.0000,-34.7826 l -30.1226,-17.3913 l -30.1226,17.3913 l -0.0000,34.7826 l 30.1226,17.3913 Z"/></g><g stroke-linejoin="miter" stroke-opacity="1.0" fill-opacity="1.0" stroke="rgb(0,0,0)" stroke-width="2.7769392181904244" fill="rgb(255,0,0)" stroke-linecap="butt" stroke-miterlimit="10.0"><path d="M 400.0000,104.3478 l -0.0000,-34.7826 l -30.1226,-17.3913 l -30.1226,17.3913 l -0.0000,34.7826 l 30.1226,17.3913 Z"/></g><g stroke-linejoin="miter" stroke-opacity="1.0" fill-opacity="1.0" stroke="rgb(0,0,0)" stroke-width="2.7769392181904244" fill="rgb(255,255,255)" stroke-linecap="butt" stroke-miterlimit="10.0"><path d="M 339.7548,104.3478 l -0.0000,-34.7826 l -30.1226,-17.3913 l -30.1226,17.3913 l -0.0000,34.7826 l 30.1226,17.3913 Z"/></g><g stroke-linejoin="miter" stroke-opacity="1.0" fill-opacity="1.0" stroke="rgb(0,0,0)" stroke-width="2.7769392181904244" fill="rgb(255,0,0)" stroke-linecap="butt" stroke-miterlimit="10.0"><path d="M 490.3679,52.1739 l -0.0000,-34.7826 l -30.1226,-17.3913 l -30.1226,17.3913 l -0.0000,34.7826 l 30.1226,17.3913 Z"/></g><g stroke-linejoin="miter" stroke-opacity="1.0" fill-opacity="1.0" stroke="rgb(0,0,0)" stroke-width="2.7769392181904244" fill="rgb(255,255,255)" stroke-linecap="butt" stroke-miterlimit="10.0"><path d="M 430.1226,52.1739 l -0.0000,-34.7826 l -30.1226,-17.3913 l -30.1226,17.3913 l -0.0000,34.7826 l 30.1226,17.3913 Z"/></g><g stroke-linejoin="miter" stroke-opacity="1.0" fill-opacity="1.0" stroke="rgb(0,0,0)" stroke-width="2.7769392181904244" fill="rgb(0,0,0)" stroke-linecap="butt" stroke-miterlimit="10.0"><path d="M 369.8774,52.1739 l -0.0000,-34.7826 l -30.1226,-17.3913 l -30.1226,17.3913 l -0.0000,34.7826 l 30.1226,17.3913 Z"/></g></svg>